<svg width="58" height="47" viewBox="0 0 58 47" fill="none" xmlns="http://www.w3.org/2000/svg">
<path fill-rule="evenodd" clip-rule="evenodd" d="M55.1231 0.527832H14.926C13.3403 0.527832 12.0548 1.81332 12.0548 3.39905V12.0127H26.4109V6.27027H43.6382V34.9825H55.1231C56.7088 34.9825 57.9943 33.697 57.9943 32.1113V3.39905C57.9943 1.81332 56.7088 0.527832 55.1231 0.527832ZM21.3864 9.76976C21.3864 10.2157 21.0249 10.5773 20.5789 10.5773H17.8871C17.4412 10.5773 17.0796 10.2157 17.0796 9.76976V7.07799C17.0796 6.632 17.4412 6.27046 17.8871 6.27046H20.5789C21.0249 6.27046 21.3864 6.632 21.3864 7.07799V9.76976ZM52.9703 28.4324C52.9703 28.8784 52.6087 29.2399 52.1628 29.2399H49.471C49.025 29.2399 48.6635 28.8784 48.6635 28.4324V25.7406C48.6635 25.2946 49.025 24.9331 49.471 24.9331H52.1628C52.6087 24.9331 52.9703 25.2946 52.9703 25.7406V28.4324ZM52.9703 19.1009C52.9703 19.5469 52.6087 19.9084 52.1628 19.9084H49.471C49.025 19.9084 48.6635 19.5469 48.6635 19.1009V16.4091C48.6635 15.9631 49.025 15.6016 49.471 15.6016H52.1628C52.6087 15.6016 52.9703 15.9631 52.9703 16.4091V19.1009ZM52.9703 9.76976C52.9703 10.2157 52.6087 10.5773 52.1628 10.5773H49.471C49.025 10.5773 48.6635 10.2157 48.6635 9.76976V7.07799C48.6635 6.632 49.025 6.27046 49.471 6.27046H52.1628C52.6087 6.27046 52.9703 6.632 52.9703 7.07799V9.76976ZM37.8962 14.8838H3.44153C1.8558 14.8838 0.570313 16.1693 0.570312 17.755V43.596C0.570313 45.1817 1.8558 46.4672 3.44153 46.4672H37.8962C39.4819 46.4672 40.7674 45.1817 40.7674 43.596V17.755C40.7674 16.1693 39.4819 14.8838 37.8962 14.8838ZM9.18376 20.6264C10.7695 20.6264 12.055 21.9119 12.055 23.4976C12.055 25.0834 10.7695 26.3689 9.18376 26.3689C7.59803 26.3689 6.31254 25.0834 6.31254 23.4976C6.31254 21.9119 7.59803 20.6264 9.18376 20.6264ZM35.0247 40.7249H6.31254V37.8536L12.055 32.1112L14.9262 34.9824L26.4111 23.4975L35.0247 32.1112V40.7249Z" fill="white" fill-opacity="0.35"/>
</svg>
