<svg width="42" height="43" viewBox="0 0 42 43" fill="none" xmlns="http://www.w3.org/2000/svg">
<path d="M25.8956 31.4341V23.5371C25.8956 23.2622 25.7872 23.001 25.5938 22.8074C25.4003 22.6138 25.1373 22.5035 24.8645 22.5035L27.2786 18.3228L29.7122 22.5035C29.1435 22.5035 28.6811 22.9661 28.6811 23.537V31.4341L25.8956 31.4341ZM16.6103 31.4341V29.0496C16.6103 28.4787 17.0726 28.0161 17.6414 28.0161L15.2272 23.8354L12.813 28.0161C13.0877 28.0161 13.3488 28.1264 13.5423 28.32C13.7358 28.5135 13.846 28.7748 13.846 29.0497V31.4342L16.6103 31.4341ZM36.0222 14.3285C34.2367 14.3285 32.5034 13.7324 31.0952 12.6368C29.6889 13.7342 27.9576 14.3304 26.174 14.3304C24.3905 14.3304 22.6591 13.7343 21.2528 12.6368C19.8465 13.7342 18.1152 14.3304 16.3317 14.3304C14.5481 14.3304 12.8168 13.7343 11.4105 12.6368C10.0022 13.7323 8.26895 14.3285 6.48351 14.3285C5.95348 14.3265 5.42539 14.2762 4.90502 14.1736V31.4344H11.7607V30.0815H11.0083C10.6407 30.0815 10.3003 29.884 10.1165 29.5647C9.93079 29.2453 9.93079 28.8524 10.1165 28.5331L14.3161 21.2554H14.3142C14.4999 20.936 14.8384 20.7405 15.2079 20.7386C15.5755 20.7405 15.9159 20.936 16.0997 21.2554L20.2994 28.5331C20.4831 28.8524 20.4831 29.2453 20.2994 29.5647C20.1156 29.884 19.7751 30.0815 19.4056 30.0815H18.6744V31.4344H23.8316V24.5694H23.1003C22.7309 24.5694 22.3904 24.372 22.2066 24.0526C22.0228 23.7333 22.0228 23.3404 22.2066 23.021L26.4121 15.7225C26.5958 15.4032 26.9363 15.2077 27.3038 15.2077C27.6714 15.2077 28.0119 15.4032 28.1956 15.7225L32.3895 23.021C32.5752 23.3404 32.5752 23.7333 32.3895 24.0526C32.2057 24.372 31.8652 24.5694 31.4977 24.5694H30.7452V31.4344H37.601V14.1736C37.0806 14.2762 36.5522 14.3265 36.0222 14.3285ZM30.0643 10.8039V0.35215H22.284V10.8039C24.5124 12.751 27.8358 12.751 30.0643 10.8039ZM40.9436 0.35215H32.1263V10.8039C33.8867 12.333 36.3762 12.693 38.4963 11.7252C40.6144 10.7575 41.9743 8.64005 41.9743 6.3076V1.3837C41.9743 1.1108 41.866 0.847587 41.6726 0.654C41.4791 0.460414 41.2164 0.35215 40.9436 0.35215ZM20.2219 10.8039V0.35215H12.4416V10.8039C14.6701 12.751 17.9934 12.751 20.2219 10.8039ZM38.1521 33.5131H3.62633C1.91631 33.5131 0.53125 34.9008 0.53125 36.6098V41.5761C0.53125 41.849 0.639578 42.1122 0.833023 42.3058C1.02647 42.4994 1.28955 42.6077 1.56232 42.6077H40.2162C40.4889 42.6077 40.752 42.4994 40.9455 42.3058C41.1389 42.1123 41.2472 41.849 41.2472 41.5761V36.594C41.2472 34.885 39.8622 33.4972 38.1522 33.4972L38.1521 33.5131ZM6.48371 12.2651C7.9171 12.2651 9.30023 11.7464 10.3796 10.8038V0.352051H1.56238C0.99368 0.352051 0.531349 0.814632 0.531349 1.38365V6.30755C0.537153 9.59594 3.19881 12.2597 6.48371 12.2651Z" fill="white" fill-opacity="0.35"/>
</svg>
