<svg width="50" height="47" viewBox="0 0 50 47" fill="none" xmlns="http://www.w3.org/2000/svg">
<path d="M30.0148 16.7523C35.4228 26.1197 49.8031 22.4412 49.9262 11.4849C49.9262 8.65801 48.8047 5.94521 46.8052 3.94576C44.8058 1.94631 42.0952 0.820388 39.2684 0.818197C31.2444 0.668955 25.9065 9.87849 30.0148 16.7523ZM39.2682 12.3628C37.7296 12.354 36.4281 11.2215 36.2087 9.6983C35.9892 8.17514 36.9176 6.72216 38.3903 6.27885V5.02342C38.3903 4.53837 38.7831 4.1455 39.2682 4.1455C39.7532 4.1455 40.1461 4.53837 40.1461 5.02342V6.27885C41.4608 6.66952 42.3628 7.87443 42.3672 9.24617C42.3672 9.73121 41.9743 10.1241 41.4893 10.1241C41.0042 10.1241 40.6114 9.73121 40.6114 9.24617C40.6114 8.52187 40.0364 7.92708 39.3121 7.90297C38.9368 7.86566 38.5637 7.98857 38.2827 8.23878C37.9996 8.48898 37.835 8.84452 37.8284 9.22204C37.8218 9.59956 37.9711 9.96168 38.2432 10.2228C38.5154 10.484 38.8841 10.6201 39.2594 10.5981C40.787 10.6201 42.0709 11.7482 42.2904 13.2604C42.5099 14.7726 41.5968 16.219 40.1373 16.6733V17.9287C40.1373 18.4138 39.7445 18.8066 39.2594 18.8066C38.7744 18.8066 38.3815 18.4138 38.3815 17.9287V16.6733C37.0624 16.287 36.1538 15.0799 36.1516 13.706C36.1516 13.2209 36.5444 12.8281 37.0295 12.8281C37.5145 12.8281 37.9074 13.2209 37.9074 13.706C37.903 14.2547 38.23 14.7485 38.7349 14.9614C39.2419 15.1743 39.8235 15.0602 40.2119 14.6739C40.6004 14.2876 40.7189 13.706 40.5082 13.199C40.2997 12.6942 39.8081 12.3628 39.2594 12.3628L39.2682 12.3628Z" fill="white"/>
<path d="M25.4947 18.0867C26.5175 18.0845 27.4634 17.538 27.9792 16.6557C26.9126 14.3095 26.6053 11.689 27.1013 9.1582H4.96889C2.64682 9.16698 0.768054 11.0501 0.763672 13.3722V18.0866L25.4947 18.0867ZM21.4475 14.4961H6.97952C6.49448 14.4961 6.10161 14.1032 6.10161 13.6182C6.10161 13.1331 6.49448 12.7403 6.97952 12.7403H21.4475C21.9326 12.7403 22.3254 13.1331 22.3254 13.6182C22.3254 14.1032 21.9326 14.4961 21.4475 14.4961Z" fill="white"/>
<path d="M8.51395 41.4125H17.8021C18.0348 41.4125 18.2586 41.3204 18.4233 41.1557C18.5879 40.9911 18.6801 40.7673 18.6801 40.5346L18.3201 29.2535C18.2916 28.7904 17.9075 28.4282 17.4422 28.4282H8.89119C8.4259 28.4282 8.04182 28.7904 8.01327 29.2535L7.62699 40.5256C7.6248 40.7605 7.71698 40.9887 7.88378 41.1555C8.05058 41.3223 8.2791 41.4147 8.51395 41.4125Z" fill="white"/>
<path d="M15.6858 25.1715C15.6858 23.7844 14.5621 22.6606 13.1749 22.6606C11.7878 22.6606 10.6641 23.7844 10.6641 25.1715V26.6376H15.6857L15.6858 25.1715Z" fill="white"/>
<path d="M39.2675 23.8897C35.0996 23.8875 31.2103 21.798 28.9078 18.3237C28.0365 19.2895 26.7942 19.8425 25.4927 19.8425H0.761719V41.8519C0.766108 44.1717 2.64706 46.0527 4.96694 46.0571H43.2614C45.5856 46.0571 47.471 44.1761 47.4754 41.8519V20.7819C45.2126 22.788 42.2916 23.8941 39.2675 23.8897ZM25.3439 26.7078H42.2527C42.7377 26.7078 43.1306 27.1006 43.1306 27.5857C43.1306 28.0707 42.7377 28.4636 42.2527 28.4636H25.3439C24.8589 28.4636 24.466 28.0707 24.466 27.5857C24.466 27.1006 24.8589 26.7078 25.3439 26.7078ZM25.3439 32.4056H42.2527C42.7377 32.4056 43.1306 32.7985 43.1306 33.2835C43.1306 33.7686 42.7377 34.1615 42.2527 34.1615H25.3439C24.8589 34.1615 24.466 33.7686 24.466 33.2835C24.466 32.7985 24.8589 32.4056 25.3439 32.4056ZM25.3439 38.0945H42.2527C42.7377 38.0945 43.1306 38.4874 43.1306 38.9724C43.1306 39.4575 42.7377 39.8503 42.2527 39.8503H25.3439C24.8589 39.8503 24.466 39.4575 24.466 38.9724C24.466 38.4874 24.8589 38.0945 25.3439 38.0945ZM6.28434 29.1923C6.3458 27.7833 7.50685 26.6705 8.91808 26.6727V25.1715C9.09366 19.5354 17.2758 19.5264 17.4517 25.1715V26.6376C18.8629 26.6354 20.0239 27.7482 20.0854 29.1572L20.4629 40.4293C20.4827 41.1404 20.2127 41.8274 19.7167 42.3366C19.2207 42.8457 18.5403 43.1333 17.8292 43.1333H8.5146C7.8035 43.1333 7.12308 42.8458 6.62707 42.3366C6.13105 41.8274 5.86108 41.1404 5.88086 40.4293L6.28434 29.1923Z" fill="white"/>
</svg>
