<svg width="48" height="48" viewBox="0 0 48 48" fill="none" xmlns="http://www.w3.org/2000/svg">
<path fill-rule="evenodd" clip-rule="evenodd" d="M13.0647 13.0656C11.1876 13.5961 9.69477 15.0214 9.0779 16.872L0.490234 42.634L1.8425 43.9863L15.6606 30.1682C15.3854 29.5919 15.2188 28.9549 15.2188 28.2737C15.2188 25.8334 17.197 23.8551 19.6373 23.8551C22.0777 23.8551 24.0559 25.8334 24.0559 28.2737C24.0559 30.714 22.0777 32.6923 19.6373 32.6923C18.9561 32.6923 18.3191 32.5256 17.7429 32.2504L3.92475 46.0685L5.27701 47.4208L31.0391 38.8331C32.8896 38.2163 34.3149 36.7234 34.8455 34.8463L38.7845 20.9094L27.0016 9.12659L13.0647 13.0656ZM46.3266 7.11689L40.7933 1.58356C39.0672 -0.142438 36.2679 -0.142438 34.5419 1.58356L29.3363 6.78919L41.121 18.5739L46.3266 13.3682C48.0526 11.6422 48.0526 8.84382 46.3266 7.11689Z" fill="white" fill-opacity="1"/>
</svg>
