<svg width="50" height="56" viewBox="0 0 50 56" fill="none" xmlns="http://www.w3.org/2000/svg">
<path d="M12.3942 55.3978H5.056C3.9816 55.3978 3.11133 54.5168 3.11133 53.4531V38.433C3.11133 37.3585 3.99234 36.4883 5.056 36.4883H12.3942C13.4686 36.4883 14.3389 37.3693 14.3389 38.433V53.4531C14.3496 54.5275 13.4686 55.3978 12.3942 55.3978Z" fill="white" fill-opacity="1"/>
<path d="M28.4137 55.3976H21.7738C20.5168 55.3976 19.4746 54.3662 19.4746 53.0984V31.4276C19.4746 30.1706 20.506 29.1284 21.7738 29.1284H28.4137C29.6707 29.1284 30.7129 30.1598 30.7129 31.4276V53.0984C30.7129 54.3662 29.6815 55.3976 28.4137 55.3976Z" fill="white" fill-opacity="1"/>
<path d="M44.4839 55.3979H38.435C37.0061 55.3979 35.8457 54.2268 35.8457 52.8086V24.498C35.8457 23.069 37.0168 21.9087 38.435 21.9087H44.4839C45.9129 21.9087 47.0732 23.0798 47.0732 24.498V52.8086C47.0732 54.2375 45.9129 55.3979 44.4839 55.3979Z" fill="white" fill-opacity="1"/>
<path d="M45.4095 0.399156C43.0458 0.495853 41.2086 2.49425 41.3053 4.86868L30.3893 15.602L21.0849 7.458L4.05563 24.541C1.86384 24.8204 0.220004 26.7113 0.305956 28.9568C0.402652 31.3205 2.41179 33.1578 4.77548 33.0611C7.13917 32.9644 8.9764 30.9552 8.87971 28.5915C8.86896 28.3982 8.82599 28.2155 8.79376 28.0221L21.6114 15.7202L30.6042 23.5956L45.5062 8.96216C45.5921 8.96216 45.6781 8.98365 45.764 8.97291C48.1277 8.87621 49.965 6.86707 49.8683 4.50338C49.7716 2.13969 47.7732 0.30246 45.4095 0.399156Z" fill="white" fill-opacity="1"/>
</svg>
