<svg width="50" height="50" viewBox="0 0 50 50" fill="none" xmlns="http://www.w3.org/2000/svg">
<path fill-rule="evenodd" clip-rule="evenodd" d="M11.0735 23.9727L24.0063 11.0417L19.7665 6.80188L13.8392 12.7292C13.6964 12.8722 13.5026 12.9526 13.3005 12.9526C13.0984 12.9526 12.9047 12.8722 12.7619 12.7292L11.6846 11.6519C11.3867 11.354 11.3867 10.8716 11.6846 10.5747L17.612 4.64736L14.3792 1.41366C13.1886 0.223005 11.2589 0.223005 10.0683 1.41366L1.44732 10.0346C0.257624 11.2253 0.256663 13.1549 1.44732 14.3456L11.0735 23.9727ZM48.406 12.7485C50.2088 10.9457 50.2079 8.02336 48.406 6.22056L44.0576 1.87212C42.2548 0.0693196 39.3315 0.0693196 37.5277 1.87212L33.1053 6.29359L43.9836 17.1719L48.406 12.7485ZM30.93 8.46915L2.38892 37.0064L0.58612 47.3312C0.342991 48.7237 1.55575 49.9364 2.94917 49.6914L13.2749 47.8809L41.8083 19.3465L30.93 8.46915ZM48.8648 35.8986L45.632 32.6659L39.7047 38.5932C39.4068 38.8911 38.9244 38.8911 38.6274 38.5932L37.5502 37.5159C37.2532 37.218 37.2532 36.7356 37.5502 36.4387L43.4775 30.5113L39.2357 26.2696L26.3029 39.2005L35.9328 48.8296C37.1235 50.0202 39.0531 50.0202 40.2438 48.8296L48.8648 40.2096C50.0554 39.0189 50.0554 37.0893 48.8648 35.8986Z" fill="white" fill-opacity="1"/>
</svg>
