<svg width="57" height="48" viewBox="0 0 57 48" fill="none" xmlns="http://www.w3.org/2000/svg">
<path fill-rule="evenodd" clip-rule="evenodd" d="M53.1296 30.6069C51.4941 28.9764 49.3424 27.9618 47.0409 27.7361C44.7395 27.5104 42.4308 28.0875 40.5082 29.3692C38.5856 30.6507 37.1681 32.5575 36.4972 34.7646C35.8263 36.9717 35.9435 39.3424 36.8288 41.473C37.7142 43.6035 39.3129 45.362 41.3526 46.4488C43.3922 47.5356 45.7467 47.8834 48.0147 47.4331C50.2827 46.9827 52.3239 45.762 53.7906 43.9789C55.2573 42.1959 56.0587 39.9608 56.0582 37.6545C56.0596 36.3453 55.8016 35.0488 55.299 33.8393C54.7964 32.6298 54.0592 31.5313 53.1296 30.6069ZM40.8501 38.1873C40.787 38.1247 40.7369 38.0502 40.7028 37.9683C40.6686 37.8863 40.651 37.7984 40.651 37.7097C40.651 37.6209 40.6686 37.533 40.7028 37.451C40.7369 37.3691 40.787 37.2947 40.8501 37.2321C40.9787 37.106 41.1518 37.0354 41.3321 37.0354C41.5124 37.0354 41.6855 37.106 41.8141 37.2321L44.4603 39.8711L50.3421 34.0052C50.4054 33.9421 50.4806 33.892 50.5633 33.8578C50.646 33.8237 50.7346 33.8061 50.8241 33.8061C50.9136 33.8061 51.0023 33.8237 51.085 33.8578C51.1676 33.892 51.2428 33.9421 51.3061 34.0052C51.3694 34.0683 51.4196 34.1433 51.4538 34.2257C51.4881 34.3082 51.5057 34.3966 51.5057 34.4859C51.5057 34.5751 51.4881 34.6635 51.4538 34.746C51.4196 34.8285 51.3694 34.9034 51.3061 34.9665L44.9208 41.31C44.858 41.373 44.7834 41.4229 44.7012 41.457C44.619 41.4911 44.5309 41.5086 44.4419 41.5086C44.3529 41.5086 44.2647 41.4911 44.1825 41.457C44.1004 41.4229 44.0257 41.373 43.963 41.31L40.8317 38.1873H40.8501ZM41.986 0.493652H1.41475C1.25192 0.493652 1.09575 0.558163 0.980609 0.672993C0.865467 0.787822 0.800781 0.943565 0.800781 1.10596L0.800781 10.3579C0.800781 10.5203 0.865467 10.6761 0.980609 10.7909C1.09575 10.9057 1.25192 10.9702 1.41475 10.9702H41.986C42.1471 10.9695 42.3014 10.9058 42.4158 10.7927C42.5315 10.6796 42.5977 10.5255 42.6 10.364V1.09984C42.5977 0.938328 42.5315 0.784272 42.4158 0.671221C42.3014 0.558101 42.1471 0.494329 41.986 0.493652ZM39.9292 28.1209H1.41475C1.25192 28.1209 1.09575 28.0564 0.980609 27.9416C0.865467 27.8268 0.800781 27.671 0.800781 27.5086V18.2567C0.800781 18.0943 0.865467 17.9385 0.980609 17.8237C1.09575 17.7089 1.25192 17.6444 1.41475 17.6444H41.986C42.1471 17.645 42.3014 17.7088 42.4158 17.8219C42.5315 17.935 42.5977 18.089 42.6 18.2505V26.8657C41.6591 27.1674 40.7614 27.5893 39.9292 28.1209ZM33.2922 33.448V29.4803H10.1086V33.448H33.2922ZM34.649 29.4803H38.2039L38.0259 29.6456C36.9401 30.731 36.0859 32.0245 35.5147 33.448H34.649V29.4803ZM33.2922 12.3357H10.1086V16.3095H33.2922V12.3234V12.3357ZM4.6688 3.80623C5.11469 3.36142 5.70144 3.08456 6.32907 3.02282C6.9567 2.96108 7.58638 3.11827 8.11082 3.46762C8.63526 3.81698 9.02202 4.33687 9.20519 4.93872C9.38837 5.54057 9.35663 6.18715 9.11538 6.76828C8.87413 7.34941 8.4383 7.82914 7.88215 8.12573C7.32599 8.42232 6.68393 8.51742 6.06535 8.39483C5.44677 8.27224 4.88995 7.93954 4.48975 7.45342C4.08956 6.9673 3.87077 6.35784 3.87064 5.72888C3.87023 5.37178 3.94053 5.01812 4.0775 4.68819C4.21447 4.35825 4.41541 4.05853 4.6688 3.80623ZM6.59667 4.36343C6.86698 4.36508 7.13076 4.44649 7.35475 4.59741C7.57874 4.74832 7.75293 4.96198 7.85535 5.21146C7.95778 5.46094 7.98386 5.73508 7.93032 5.99932C7.87678 6.26356 7.746 6.50608 7.55447 6.69632C7.36297 6.88806 7.11867 7.01873 6.85257 7.07174C6.58646 7.12475 6.31057 7.0977 6.05991 6.99403C5.80925 6.89037 5.59513 6.71476 5.44474 6.4895C5.29435 6.26424 5.21447 5.9995 5.21524 5.72888C5.21685 5.36723 5.36162 5.02086 5.61804 4.76514C5.87445 4.50942 6.22177 4.36504 6.58439 4.36343H6.59667ZM11.6681 3.80623C12.1138 3.36606 12.6987 3.09347 13.3232 3.03485C13.9477 2.97622 14.5734 3.13518 15.0936 3.48467C15.6139 3.83417 15.9967 4.35262 16.1769 4.95184C16.3571 5.55106 16.3236 6.19403 16.0821 6.77138C15.8405 7.34874 15.4059 7.82482 14.8521 8.11865C14.2983 8.41247 13.6596 8.50589 13.0445 8.38301C12.4294 8.26013 11.876 7.92854 11.4785 7.44466C11.0809 6.96077 10.8637 6.35446 10.8638 5.72888C10.8642 5.37135 10.9354 5.01744 11.0735 4.68748C11.2115 4.35752 11.4136 4.05803 11.6681 3.80623ZM13.5959 4.36343C13.8668 4.36388 14.1314 4.44442 14.3563 4.59487C14.5813 4.74532 14.7564 4.95892 14.8596 5.20865C14.9628 5.45838 14.9894 5.73301 14.936 5.99782C14.8827 6.26263 14.7518 6.50571 14.5599 6.69632C14.2995 6.93201 13.9581 7.05874 13.6066 7.05025C13.255 7.04176 12.9203 6.8987 12.6716 6.65072C12.4229 6.40274 12.2795 6.06885 12.271 5.71826C12.2625 5.36766 12.3895 5.02725 12.6259 4.76755C12.7523 4.63895 12.9032 4.53692 13.0699 4.46751C13.2365 4.39809 13.4154 4.3627 13.5959 4.36343ZM24.1317 8.19647C23.951 8.19647 23.7776 8.12486 23.6498 7.9974C23.522 7.86994 23.4502 7.69707 23.4502 7.51681C23.4502 7.33655 23.522 7.16368 23.6498 7.03622C23.7776 6.90876 23.951 6.83715 24.1317 6.83715H36.5953C36.7761 6.83715 36.9494 6.90876 37.0772 7.03622C37.205 7.16368 37.2768 7.33655 37.2768 7.51681C37.2768 7.69707 37.205 7.86994 37.0772 7.9974C36.9494 8.12486 36.7761 8.19647 36.5953 8.19647H24.1317ZM38.867 6.83715C39.0478 6.83715 39.2211 6.90876 39.3489 7.03622C39.4767 7.16368 39.5485 7.33655 39.5485 7.51681C39.5485 7.69707 39.4767 7.86994 39.3489 7.9974C39.2211 8.12486 39.0478 8.19647 38.867 8.19647C38.6863 8.19647 38.5129 8.12486 38.3851 7.9974C38.2573 7.86994 38.1855 7.69707 38.1855 7.51681C38.1855 7.33655 38.2573 7.16368 38.3851 7.03622C38.5129 6.90876 38.6863 6.83715 38.867 6.83715ZM24.1317 4.6206C23.9485 4.6206 23.7728 4.54803 23.6433 4.41884C23.5138 4.28966 23.441 4.11445 23.441 3.93175C23.441 3.74906 23.5138 3.57385 23.6433 3.44467C23.7728 3.31548 23.9485 3.24291 24.1317 3.24291H36.5953C36.6898 3.23393 36.7852 3.24475 36.8753 3.27467C36.9654 3.30459 37.0482 3.35295 37.1184 3.41665C37.1887 3.48035 37.2448 3.55799 37.2832 3.64458C37.3216 3.73118 37.3414 3.82482 37.3414 3.91951C37.3414 4.0142 37.3216 4.10784 37.2832 4.19443C37.2448 4.28103 37.1887 4.35867 37.1184 4.42237C37.0482 4.48607 36.9654 4.53443 36.8753 4.56435C36.7852 4.59427 36.6898 4.60508 36.5953 4.59611L24.1317 4.6206ZM38.867 3.24291C38.9615 3.23393 39.0569 3.24475 39.147 3.27467C39.237 3.30459 39.3199 3.35295 39.3901 3.41665C39.4604 3.48035 39.5165 3.55799 39.5549 3.64458C39.5933 3.73118 39.6131 3.82482 39.6131 3.91951C39.6131 4.0142 39.5933 4.10784 39.5549 4.19443C39.5165 4.28103 39.4604 4.35867 39.3901 4.42237C39.3199 4.48607 39.237 4.53443 39.147 4.56435C39.0569 4.59427 38.9615 4.60508 38.867 4.59611C38.6982 4.58008 38.5415 4.50186 38.4274 4.37675C38.3133 4.25164 38.2501 4.08861 38.2501 3.91951C38.2501 3.75041 38.3133 3.58738 38.4274 3.46227C38.5415 3.33715 38.6982 3.25894 38.867 3.24291ZM4.6688 20.9631C4.1575 21.473 3.87025 22.1646 3.87025 22.8857C3.87025 23.6068 4.1575 24.2984 4.6688 24.8084C5.18011 25.3183 5.87358 25.6047 6.59667 25.6047C7.31976 25.6047 8.01324 25.3183 8.52454 24.8084C9.03585 24.2984 9.32309 23.6068 9.32309 22.8857C9.32309 22.1646 9.03585 21.473 8.52454 20.9631C8.27137 20.7106 7.97081 20.5103 7.64003 20.3737C7.30924 20.237 6.95471 20.1667 6.59667 20.1667C5.87358 20.1667 5.18011 20.4532 4.6688 20.9631ZM6.59667 21.5203C6.28107 21.5189 5.97478 21.6268 5.73007 21.8256C5.48536 22.0243 5.31739 22.3016 5.25483 22.6101C5.19226 22.9186 5.23899 23.2392 5.38702 23.5172C5.53506 23.7952 5.77523 24.0133 6.06656 24.1343C6.35788 24.2554 6.6823 24.2719 6.98445 24.181C7.2866 24.0901 7.54776 23.8974 7.72336 23.6359C7.89895 23.3744 7.9781 23.0602 7.9473 22.7469C7.9165 22.4337 7.77766 22.1408 7.55447 21.9183C7.29616 21.6636 6.94764 21.5206 6.58439 21.5203H6.59667ZM11.6681 20.9631C11.2869 21.3433 11.0274 21.8277 10.9222 22.3551C10.8171 22.8824 10.8711 23.429 11.0775 23.9257C11.2838 24.4224 11.6332 24.847 12.0815 25.1457C12.5298 25.4444 13.0568 25.6038 13.5959 25.6038C14.1351 25.6038 14.6621 25.4444 15.1104 25.1457C15.5586 24.847 15.9081 24.4224 16.1144 23.9257C16.3208 23.429 16.3748 22.8824 16.2697 22.3551C16.1645 21.8277 15.905 21.3433 15.5238 20.9631C15.2707 20.7105 14.9701 20.5102 14.6393 20.3735C14.3085 20.2369 13.954 20.1665 13.5959 20.1665C13.2379 20.1665 12.8833 20.2369 12.5526 20.3735C12.2218 20.5102 11.9212 20.7105 11.6681 20.9631ZM13.5959 21.5203C13.2773 21.5192 12.9682 21.6284 12.7214 21.8294C12.4746 22.0303 12.3054 22.3105 12.2427 22.622C12.18 22.9336 12.2278 23.2571 12.3778 23.5375C12.5277 23.8178 12.7707 24.0375 13.0651 24.1591C13.3594 24.2806 13.687 24.2965 13.9918 24.2039C14.2966 24.1113 14.5597 23.9161 14.7362 23.6515C14.9127 23.387 14.9916 23.0695 14.9594 22.7534C14.9273 22.4373 14.786 22.1421 14.5599 21.9183C14.3038 21.6639 13.9573 21.5209 13.5959 21.5203ZM24.1317 25.3472H36.5953C36.6898 25.3562 36.7852 25.3453 36.8753 25.3154C36.9654 25.2855 37.0482 25.2371 37.1184 25.1734C37.1887 25.1097 37.2448 25.0321 37.2832 24.9455C37.3216 24.8589 37.3414 24.7653 37.3414 24.6706C37.3414 24.5759 37.3216 24.4823 37.2832 24.3957C37.2448 24.3091 37.1887 24.2314 37.1184 24.1677C37.0482 24.104 36.9654 24.0557 36.8753 24.0257C36.7852 23.9958 36.6898 23.985 36.5953 23.994H24.1317C23.9629 24.01 23.8062 24.0882 23.6921 24.2133C23.578 24.3385 23.5148 24.5015 23.5148 24.6706C23.5148 24.8397 23.578 25.0027 23.6921 25.1278C23.8062 25.2529 23.9629 25.3312 24.1317 25.3472ZM38.867 23.994C38.6982 24.01 38.5415 24.0882 38.4274 24.2133C38.3133 24.3385 38.2501 24.5015 38.2501 24.6706C38.2501 24.8397 38.3133 25.0027 38.4274 25.1278C38.5415 25.2529 38.6982 25.3312 38.867 25.3472C38.9615 25.3562 39.0569 25.3453 39.147 25.3154C39.237 25.2855 39.3199 25.2371 39.3901 25.1734C39.4604 25.1097 39.5165 25.0321 39.5549 24.9455C39.5933 24.8589 39.6131 24.7653 39.6131 24.6706C39.6131 24.5759 39.5933 24.4823 39.5549 24.3957C39.5165 24.3091 39.4604 24.2314 39.3901 24.1677C39.3199 24.104 39.237 24.0557 39.147 24.0257C39.0569 23.9958 38.9615 23.985 38.867 23.994ZM24.1317 21.7774H36.5953C36.6898 21.7864 36.7852 21.7756 36.8753 21.7457C36.9654 21.7158 37.0482 21.6674 37.1184 21.6037C37.1887 21.54 37.2448 21.4624 37.2832 21.3758C37.3216 21.2892 37.3414 21.1955 37.3414 21.1008C37.3414 21.0061 37.3216 20.9125 37.2832 20.8259C37.2448 20.7393 37.1887 20.6617 37.1184 20.598C37.0482 20.5343 36.9654 20.4859 36.8753 20.456C36.7852 20.4261 36.6898 20.4153 36.5953 20.4242H24.1317C23.9629 20.4403 23.8062 20.5185 23.6921 20.6436C23.578 20.7687 23.5148 20.9317 23.5148 21.1008C23.5148 21.2699 23.578 21.433 23.6921 21.5581C23.8062 21.6832 23.9629 21.7614 24.1317 21.7774ZM38.867 20.4242C38.6982 20.4403 38.5415 20.5185 38.4274 20.6436C38.3133 20.7687 38.2501 20.9317 38.2501 21.1008C38.2501 21.2699 38.3133 21.433 38.4274 21.5581C38.5415 21.6832 38.6982 21.7614 38.867 21.7774C38.9615 21.7864 39.0569 21.7756 39.147 21.7457C39.237 21.7158 39.3199 21.6674 39.3901 21.6037C39.4604 21.54 39.5165 21.4624 39.5549 21.3758C39.5933 21.2892 39.6131 21.1955 39.6131 21.1008C39.6131 21.0061 39.5933 20.9125 39.5549 20.8259C39.5165 20.7393 39.4604 20.6617 39.3901 20.598C39.3199 20.5343 39.237 20.4859 39.147 20.456C39.0569 20.4261 38.9615 20.4153 38.867 20.4242ZM4.6688 38.1444C5.11546 37.6989 5.70341 37.4219 6.33216 37.3608C6.96091 37.2997 7.59142 37.4582 8.11593 37.8094C8.64044 38.1605 9.02638 38.6824 9.20779 39.2859C9.38919 39.8894 9.3548 40.537 9.1105 41.118C8.86619 41.699 8.42714 42.1773 7.86837 42.4712C7.30961 42.7652 6.66583 42.8564 6.04707 42.7294C5.42831 42.6024 4.87298 42.2651 4.47601 41.775C4.07903 41.2849 3.86505 40.6725 3.87064 40.0425C3.87212 39.6894 3.94337 39.34 4.08033 39.0143C4.21728 38.6886 4.41725 38.393 4.6688 38.1444ZM6.59667 38.7016C6.23728 38.6999 5.89179 38.8399 5.63537 39.0911C5.37895 39.3422 5.23237 39.6842 5.22752 40.0425C5.22615 40.2681 5.28081 40.4904 5.38661 40.6897C5.49241 40.889 5.64607 41.0591 5.83384 41.1847C6.02162 41.3103 6.23768 41.3876 6.46272 41.4097C6.68776 41.4318 6.91477 41.3979 7.12348 41.3111C7.3322 41.2243 7.51611 41.0874 7.6588 40.9124C7.80148 40.7375 7.8985 40.53 7.94119 40.3086C7.98387 40.0871 7.9709 39.8585 7.90341 39.6433C7.83593 39.4281 7.71605 39.2329 7.55447 39.0751C7.29616 38.8204 6.94764 38.6774 6.58439 38.6771L6.59667 38.7016ZM11.6681 38.1444C12.0493 37.7641 12.5351 37.5051 13.064 37.4001C13.5928 37.2952 14.141 37.349 14.6392 37.5548C15.1374 37.7606 15.5632 38.1092 15.8627 38.5564C16.1623 39.0035 16.3221 39.5293 16.322 40.067C16.2887 40.7665 15.9866 41.4264 15.4785 41.9097C14.9703 42.393 14.2951 42.6627 13.5929 42.6627C12.8907 42.6627 12.2154 42.393 11.7073 41.9097C11.1991 41.4264 10.8971 40.7665 10.8638 40.067C10.8632 39.7094 10.934 39.3551 11.072 39.025C11.2101 38.695 11.4128 38.3956 11.6681 38.1444ZM13.5959 38.7016C13.3259 38.702 13.0619 38.7821 12.8374 38.9318C12.6128 39.0815 12.4377 39.2941 12.334 39.5428C12.2303 39.7915 12.2027 40.0653 12.2546 40.3296C12.3065 40.594 12.4357 40.8371 12.6259 41.0284C12.7505 41.1653 12.9016 41.2755 13.0702 41.3524C13.2388 41.4293 13.4213 41.4713 13.6066 41.4757C13.7919 41.4802 13.9762 41.4471 14.1483 41.3784C14.3205 41.3098 14.4768 41.207 14.6079 41.0762C14.739 40.9455 14.8421 40.7896 14.9109 40.6179C14.9798 40.4463 15.013 40.2625 15.0085 40.0777C15.004 39.8928 14.9619 39.7108 14.8848 39.5427C14.8077 39.3746 14.6972 39.2238 14.5599 39.0996C14.4333 38.9734 14.283 38.8733 14.1176 38.805C13.9522 38.7367 13.775 38.7016 13.5959 38.7016ZM24.1317 38.9343H34.7534C34.8395 39.687 34.9999 40.4295 35.2323 41.1508H24.1317C23.9629 41.1669 23.8062 41.2451 23.6921 41.3702C23.578 41.4953 23.5148 41.6583 23.5148 41.8274C23.5148 41.9965 23.578 42.1595 23.6921 42.2847C23.8062 42.4098 23.9629 42.488 24.1317 42.504H35.7972C36.2719 43.5134 36.8925 44.4479 37.6391 45.2778H1.41475C1.25192 45.2778 1.09575 45.2133 0.980609 45.0984C0.865467 44.9836 0.800781 44.8279 0.800781 44.6655V35.4135C0.800781 35.2511 0.865467 35.0954 0.980609 34.9805C1.09575 34.8657 1.25192 34.8012 1.41475 34.8012H35.0665C34.8298 35.7049 34.7081 36.6348 34.7043 37.5688H24.1317C23.951 37.5688 23.7776 37.6404 23.6498 37.7679C23.522 37.8954 23.4502 38.0682 23.4502 38.2485C23.4502 38.4287 23.522 38.6016 23.6498 38.7291C23.7776 38.8565 23.951 38.9281 24.1317 38.9281V38.9343Z" fill="white" fill-opacity="1"/>
</svg>
