<svg width="48" height="42" viewBox="0 0 48 42" fill="none" xmlns="http://www.w3.org/2000/svg">
<path fill-rule="evenodd" clip-rule="evenodd" d="M10.8398 15.9512H44.1029V21.3732H10.8398V15.9512Z" fill="white" fill-opacity="1"/>
<path fill-rule="evenodd" clip-rule="evenodd" d="M3.96875 15.9512H9.09952V21.3732H3.96875V15.9512Z" fill="white" fill-opacity="1"/>
<path fill-rule="evenodd" clip-rule="evenodd" d="M0.46875 12.0771V39.6656C0.46875 40.0852 0.625281 40.4613 0.877468 40.7309C1.11661 40.9853 1.44488 41.144 1.8058 41.144H46.2607C46.6216 41.144 46.9499 40.9874 47.189 40.7309C47.4412 40.4635 47.5977 40.0852 47.5977 39.6656L47.5999 12.0771H0.46875ZM9.96915 23.1125H3.09903C2.61857 23.1125 2.22941 22.7234 2.22941 22.2429V15.0817C2.22941 14.6013 2.61857 14.2121 3.09903 14.2121H44.9687C45.4492 14.2121 45.8383 14.6013 45.8383 15.0817V22.2429C45.8383 22.7234 45.4492 23.1125 44.9687 23.1125H9.96915ZM5.55149 27.0998C5.55149 26.6193 5.94065 26.2301 6.42111 26.2301H14.3977C14.8781 26.2301 15.2673 26.6193 15.2673 27.0998V38.5398C15.2673 39.0202 14.8781 39.4094 14.3977 39.4094H6.42111C5.94065 39.4094 5.55149 39.0202 5.55149 38.5398V27.0998ZM19.176 38.5398V27.0998C19.176 26.6193 19.5651 26.2301 20.0456 26.2301H28.0221C28.5026 26.2301 28.8918 26.6193 28.8918 27.0998V38.5398C28.8918 39.0202 28.5026 39.4094 28.0221 39.4094H20.0456C19.5651 39.4094 19.176 39.0202 19.176 38.5398ZM32.8027 38.5398V27.0998C32.8027 26.6193 33.1918 26.2301 33.6723 26.2301H41.6488C42.1293 26.2301 42.5185 26.6193 42.5185 27.0998V38.5398C42.5185 39.0202 42.1293 39.4094 41.6488 39.4094H33.6723C33.1918 39.4094 32.8027 39.0202 32.8027 38.5398Z" fill="white" fill-opacity="1"/>
<path fill-rule="evenodd" clip-rule="evenodd" d="M7.28906 27.9688H13.5286V37.6717H7.28906V27.9688Z" fill="white" fill-opacity="1"/>
<path fill-rule="evenodd" clip-rule="evenodd" d="M20.916 27.9688H27.1556V37.6717H20.916V27.9688Z" fill="white" fill-opacity="1"/>
<path fill-rule="evenodd" clip-rule="evenodd" d="M34.541 27.9688H40.7806V37.6717H34.541V27.9688Z" fill="white" fill-opacity="1"/>
<path fill-rule="evenodd" clip-rule="evenodd" d="M0.46875 10.34H47.6001V2.16978C47.6001 1.75019 47.4436 1.37407 47.1914 1.10448C46.9522 0.850114 46.624 0.691406 46.263 0.691406L1.80817 0.69358C1.44728 0.69358 1.11899 0.850111 0.879833 1.10665C0.627647 1.37406 0.47111 1.75237 0.47111 2.17195V9.26581L0.46875 10.34ZM44.9693 6.3115H27.7355C27.2551 6.3115 26.8659 5.92234 26.8659 5.44188C26.8659 4.96142 27.2551 4.57226 27.7355 4.57226H44.9693C45.4497 4.57226 45.8389 4.96142 45.8389 5.44188C45.8367 5.92234 45.4497 6.3115 44.9693 6.3115ZM24.5353 5.51579C24.5353 6.39192 24.1788 7.18763 23.6048 7.7616C23.0309 8.33558 22.2352 8.69211 21.359 8.69211C20.4829 8.69211 19.6872 8.33557 19.1132 7.7616C18.5392 7.18764 18.1827 6.39198 18.1827 5.51579C18.1827 4.63966 18.5392 3.84395 19.1132 3.26998C19.6872 2.696 20.4828 2.33947 21.359 2.33947C22.2351 2.33947 23.0308 2.69601 23.6048 3.26998C24.181 3.84612 24.5353 4.63961 24.5353 5.51579ZM15.6282 3.26998C16.2021 3.8439 16.5587 4.63961 16.5587 5.51579C16.5587 6.39192 16.2022 7.18763 15.6282 7.7616C15.0542 8.33558 14.2586 8.69211 13.3824 8.69211C12.5063 8.69211 11.7106 8.33557 11.1366 7.7616C10.5626 7.18764 10.2061 6.39198 10.2061 5.51579C10.2061 4.63966 10.5626 3.84395 11.1366 3.26998C11.7105 2.696 12.5062 2.33947 13.3824 2.33947C14.2607 2.33947 15.0542 2.69601 15.6282 3.26998ZM7.65166 3.26998C8.22558 3.8439 8.58216 4.63961 8.58216 5.51579C8.58216 6.39192 8.22562 7.18763 7.65166 7.7616C7.07769 8.33558 6.28203 8.69211 5.40584 8.69211C4.52966 8.69211 3.73401 8.33557 3.16003 7.7616C2.58605 7.18764 2.22952 6.39198 2.22952 5.51579C2.22952 4.63966 2.58607 3.84395 3.16003 3.26998C3.73399 2.696 4.52966 2.33947 5.40584 2.33947C6.28414 2.33947 7.07768 2.69601 7.65166 3.26998Z" fill="white" fill-opacity="1"/>
<path fill-rule="evenodd" clip-rule="evenodd" d="M19.9219 5.51586C19.9219 5.91371 20.0828 6.27244 20.3436 6.5333C20.6045 6.79416 20.9633 6.95507 21.3611 6.95507C21.7589 6.95507 22.1177 6.79419 22.3785 6.5333C22.6394 6.27242 22.8003 5.91369 22.8003 5.51586C22.8003 5.11801 22.6394 4.75928 22.3785 4.49842C22.1176 4.23757 21.7589 4.07666 21.3611 4.07666C20.9633 4.07666 20.6045 4.23754 20.3436 4.49842C20.0828 4.75931 19.9219 5.12021 19.9219 5.51586Z" fill="white" fill-opacity="1"/>
<path fill-rule="evenodd" clip-rule="evenodd" d="M11.9453 5.51586C11.9453 5.91371 12.1062 6.27244 12.3671 6.5333C12.628 6.79416 12.9867 6.95507 13.3845 6.95507C13.7824 6.95507 14.1411 6.79419 14.402 6.5333C14.6628 6.27242 14.8237 5.91369 14.8237 5.51586C14.8237 5.11801 14.6628 4.75928 14.402 4.49842C14.1411 4.23757 13.7823 4.07666 13.3845 4.07666C12.9867 4.07666 12.6279 4.23754 12.3671 4.49842C12.1062 4.75931 11.9453 5.12021 11.9453 5.51586Z" fill="white" fill-opacity="1"/>
<path fill-rule="evenodd" clip-rule="evenodd" d="M3.96875 5.51586C3.96875 5.91371 4.12963 6.27244 4.39051 6.5333C4.6514 6.79416 5.01013 6.95507 5.40795 6.95507C5.8058 6.95507 6.16453 6.79419 6.42539 6.5333C6.68625 6.27242 6.84715 5.91369 6.84715 5.51586C6.84715 5.11801 6.68628 4.75928 6.42539 4.49842C6.16451 4.23757 5.80578 4.07666 5.40795 4.07666C5.0101 4.07666 4.65137 4.23754 4.39051 4.49842C4.12966 4.75931 3.96875 5.12021 3.96875 5.51586Z" fill="white" fill-opacity="1"/>
</svg>
