<svg width="53" height="53" viewBox="0 0 53 53" fill="none" xmlns="http://www.w3.org/2000/svg">
<path d="M52.5988 41.1341C52.5988 47.2891 47.6094 52.2785 41.4544 52.2785C35.2995 52.2785 30.3101 47.2891 30.3101 41.1341C30.3101 40.6716 30.3915 40.2314 30.4464 39.784L19.4552 34.2885C17.4476 36.2236 14.7428 37.4193 11.7362 37.4193C5.58122 37.4193 0.591797 32.4299 0.591797 26.275C0.591797 20.1201 5.58122 15.1306 11.7362 15.1306C14.7382 15.1306 17.4511 16.331 19.4559 18.2615L30.4471 12.7659C30.3913 12.3213 30.3101 11.7757 30.3101 11.4158C30.3101 5.26091 35.2995 0.271484 41.4544 0.271484C47.6094 0.271484 52.5988 5.26091 52.5988 11.4158C52.5988 17.5708 47.6094 22.5602 41.4544 22.5602C38.4524 22.5602 35.7395 21.3599 33.7347 19.4293L22.7435 24.9249C22.7993 25.3695 22.8805 25.8106 22.8805 26.275C22.8805 26.7393 22.7993 27.1805 22.7412 27.6216L33.7323 33.1172C35.743 31.1855 38.4478 29.9898 41.4544 29.9898C47.6071 29.9898 52.5988 34.877 52.5988 41.1341Z" fill="white" fill-opacity="1"/>
</svg>
